<svg width="24" height="24" viewBox="0 0 24 24" fill="none" xmlns="http://www.w3.org/2000/svg">
<g filter="url(#filter0_i)">
<path d="M12.001 22.497C17.8 22.497 22.501 17.796 22.501 11.997C22.501 6.19802 17.8 1.49701 12.001 1.49701C6.202 1.49701 1.50099 6.19802 1.50099 11.997C1.50099 17.796 6.202 22.497 12.001 22.497Z" fill="white"/>
</g>
<path d="M12.001 22.497C17.8 22.497 22.501 17.796 22.501 11.997C22.501 6.19802 17.8 1.49701 12.001 1.49701C6.202 1.49701 1.50099 6.19802 1.50099 11.997C1.50099 17.796 6.202 22.497 12.001 22.497Z" stroke="#375BD2" stroke-width="1.5" stroke-linecap="round" stroke-linejoin="round"/>
<path d="M16.501 11.997H7.50099" stroke="#375BD2" stroke-width="1.5" stroke-linecap="round" stroke-linejoin="round"/>
<path d="M12.751 8.24701L16.501 11.997L12.751 15.747" stroke="#375BD2" stroke-width="1.5" stroke-linecap="round" stroke-linejoin="round"/>
<defs>
<filter id="filter0_i" x="0.750992" y="0.747009" width="22.5" height="22.5" filterUnits="userSpaceOnUse" color-interpolation-filters="sRGB">
<feFlood flood-opacity="0" result="BackgroundImageFix"/>
<feBlend mode="normal" in="SourceGraphic" in2="BackgroundImageFix" result="shape"/>
<feColorMatrix in="SourceAlpha" type="matrix" values="0 0 0 0 0 0 0 0 0 0 0 0 0 0 0 0 0 0 127 0" result="hardAlpha"/>
<feOffset dx="-3" dy="-1"/>
<feComposite in2="hardAlpha" operator="arithmetic" k2="-1" k3="1"/>
<feColorMatrix type="matrix" values="0 0 0 0 0.87451 0 0 0 0 0.905882 0 0 0 0 0.984314 0 0 0 1 0"/>
<feBlend mode="normal" in2="shape" result="effect1_innerShadow"/>
</filter>
</defs>
</svg>
